<svg width="12" height="12" viewBox="0 0 12 12" fill="none" xmlns="http://www.w3.org/2000/svg">
<g clip-path="url(#clip0_1_217)">
<path d="M6 8.20464L3.79884 6L6 3.79535L8.20465 6L6 8.20464ZM6 0C4.81331 0 3.65328 0.351896 2.66659 1.01118C1.67989 1.67048 0.910854 2.60755 0.456729 3.7039C0.00260269 4.80025 -0.116221 6.00665 0.11529 7.17055C0.346801 8.33443 0.918248 9.40353 1.75737 10.2426C2.59647 11.0818 3.66559 11.6532 4.82947 11.8847C5.99336 12.1162 7.19974 11.9974 8.2961 11.5432C9.39246 11.0892 10.3295 10.3201 10.9888 9.33341C11.6481 8.34672 12 7.18668 12 6C12 4.4087 11.3678 2.88257 10.2426 1.75736C9.11742 0.632141 7.5913 0 6 0Z" fill="black"/>
</g>
<defs>
<clipPath id="clip0_1_217">
<rect width="12" height="12" fill="white"/>
</clipPath>
</defs>
</svg>
